<svg version="1.2" xmlns="http://www.w3.org/2000/svg" viewBox="0 0 800 800" width="800" height="800">
    <title>gg-svgrepo-com</title>
    <style>
        .s0 { fill: #000000 }  /* Color para MANAGER (negro) */
        .g-left { fill: #000000 }  /* Primera G (negro) */
        .g-right { fill: #00897B }  /* Segunda G (verde-azulado) */
    </style>
    
    <!-- Primera G (izquierda) - Negra -->
    <path class="g-left" d="m279.4 359.7l161.3 161.3-161.3 161.4-282.4-282.4 282.4-282.3 70.5 70.6-40.3 40.3-30.2-30.3-201.7 201.7 201.7 201.7 81-81.1-121.4-120.6z"/>
    
    <!-- Segunda G (derecha) - Verde-azulado (#00897B) -->
    <path class="g-right" d="m521.4 117.7l282.4 282.3-282.4 282.4-70.6-70.6 40.4-40.3 30.2 30.2 201.7-201.6-201.7-201.7-81.1 81.1 121.5 120.6-40.4 40.3-161.3-161.4z"/>
    
    <!-- Texto "MANAGER" (negro) -->
    <path id="MANAGER" class="s0" aria-label="MANAGER" d="m542.2 685.1l6.1-6.1 22.2 10.6-10.6-22.2 6.1-6.1 22.6 22.6-4.6 4.7-6.2-6.2-10.2-11.2 10.7 23-3.2 3.2-22.9-10.8 11.1 10.2 6.2 6.2-4.7 4.7zm65.1-19.9l-6.2-3.1-8.2 8.2 3.1 6.2-4.9 5-14.2-31.1 4.3-4.3 31.1 14.2zm-22.6-11.3l5.7 11.3 5.6-5.6zm25.5-36.9l22.6 22.7-4.7 4.6-23.9-5.8 14.8 14.9-4.6 4.6-22.6-22.6 4.6-4.6 24 5.8-14.9-14.9zm41.3 3.9l-6.2-3.1-8.2 8.2 3.1 6.2-4.9 5-14.2-31.1 4.3-4.3 31.1 14.2zm-22.6-11.3l5.7 11.3 5.6-5.7zm35.4-25.2l9 9q0.2 2.8-1.2 5.9-1.5 3.1-4.3 5.9-2.9 3-6.4 3.9-3.5 0.9-7.2-0.3-3.6-1.3-6.9-4.5l-1.6-1.6q-3.4-3.3-4.7-7-1.3-3.6-0.5-7 0.9-3.5 3.7-6.4 4.1-4 8.3-4.4 4.1-0.3 8.2 2.9l-4.5 4.6q-2.3-1.7-4.2-1.5-2 0.1-3.9 2-2.3 2.4-1.8 5.4 0.6 3 4.1 6.6l1.4 1.4q3.6 3.6 6.7 4.1 3.2 0.4 5.8-2.2 2.6-2.6 2.6-4.8l-3.9-3.9-4.2 4.2-3.4-3.4zm15.8-19l3.6 3.7-8.9 8.9 6 6.1 10.6-10.5 3.7 3.7-15.2 15.2-22.6-22.6 15.1-15.2 3.8 3.8-10.5 10.5 5.4 5.4zm30.4-3.5l-12.5-4-3.7 3.7 8.2 8.3-4.6 4.6-22.6-22.6 8.4-8.4q4-4 7.9-4.4 4-0.4 7.3 2.9 2.3 2.3 2.8 4.9 0.6 2.5-0.6 5.4l14.2 4.4 0.2 0.2zm-26.8-10.9l6.8 6.8 3.8-3.7q1.7-1.8 1.8-3.7 0.1-1.8-1.5-3.4-1.6-1.6-3.5-1.6-1.8 0-3.6 1.9z"/>
</svg>